<svg data-v-0dd9719b="" version="1.0" xmlns="http://www.w3.org/2000/svg" xmlns:xlink="http://www.w3.org/1999/xlink" width="100%" height="100%" viewBox="0 0 340.000000 250.000000" preserveAspectRatio="xMidYMid meet" color-interpolation-filters="sRGB" style="margin: auto;"> <rect data-v-0dd9719b="" x="0" y="0" width="100%" height="100%" fill="#fff" fill-opacity="1" class="background"></rect> <rect data-v-0dd9719b="" x="0" y="0" width="100%" height="100%" fill="url(#watermark)" fill-opacity="1" class="watermarklayer"></rect> <g data-v-0dd9719b="" fill="#333" class="icon-text-wrapper icon-svg-group iconsvg" transform="translate(48.93000030517578,95.16558074951172)"><g class="iconsvg-imagesvg" transform="translate(0,0)"><g><rect fill="#333" fill-opacity="0" stroke-width="2" x="0" y="0" width="60" height="59.668837949380936" class="image-rect"></rect> <svg x="0" y="0" width="60" height="59.668837949380936" filtersec="colorsb5083367002" class="image-svg-svg primary" style="overflow: visible;"><svg xmlns="http://www.w3.org/2000/svg" viewBox="0 0 68.91000366210938 68.52999877929688"><path d="M0 34.24h34.76l-10.85 11 .21.53h33.17L34.21 68.53z" fill="#4d4398"></path><path d="M68.91 34.2H34.54l10.69-10.82-.23-.51H11.71L34.83 0z" fill="#00a0da"></path></svg></svg> <!----></g></g> <g transform="translate(67,1.8192787170410156)"><g data-gra="path-name" fill-rule="" class="tp-name iconsvg-namesvg" transform="translate(0,0)"><g transform="scale(1)"><g><path d="M41.04 2.02L4.05 2.02Q2.7 2.02 2.7 0.67L2.7 0.67Q2.7-0.72 4.05-0.72L4.05-0.72 20.7-0.72 20.7-4.59 7.42-4.59Q6.08-4.59 6.08-5.94 6.08-7.29 7.42-7.29L7.42-7.29 20.7-7.29 20.7-10.39 9.99-10.39Q8.82-10.39 8.1-11.12 7.38-11.83 7.38-13L7.38-13 7.38-21.64Q7.38-22.81 8.1-23.54 8.82-24.25 9.99-24.25L9.99-24.25 20.7-24.25 20.7-26.95 4.27-26.95Q2.92-26.95 2.92-28.35L2.92-28.35Q2.92-29.7 4.27-29.7L4.27-29.7 20.7-29.7 20.7-32.94Q14.49-32.53 8.23-32.4L8.23-32.4Q6.97-32.35 6.66-33.52L6.66-33.52Q6.3-34.96 8.05-35.05L8.05-35.05Q25.61-35.64 35.19-37.26L35.19-37.26Q35.73-37.35 36.09-37.13L36.09-37.13Q36.36-36.99 36.72-36.45L36.72-36.45Q37.89-34.78 36.13-34.47L36.13-34.47Q31.72-33.8 23.98-33.16L23.98-33.16 23.98-29.7 40.77-29.7Q42.12-29.7 42.12-28.35L42.12-28.35Q42.12-26.95 40.77-26.95L40.77-26.95 23.98-26.95 23.98-24.25 35.32-24.25Q36.49-24.25 37.21-23.54 37.93-22.81 37.93-21.64L37.93-21.64 37.93-13Q37.93-11.83 37.21-11.12 36.49-10.39 35.32-10.39L35.32-10.39 23.98-10.39 23.98-7.29 38.2-7.29Q39.55-7.29 39.55-5.94 39.55-4.59 38.2-4.59L38.2-4.59 23.98-4.59 23.98-0.72 41.04-0.72Q42.39-0.72 42.39 0.67L42.39 0.67Q42.39 2.02 41.04 2.02L41.04 2.02ZM11.61-12.78L11.61-12.78 20.7-12.78 20.7-16.2 10.66-16.2 10.66-13.72Q10.66-12.78 11.61-12.78ZM23.98-16.2L23.98-12.78 33.62-12.78Q34.56-12.78 34.56-13.72L34.56-13.72 34.56-16.2 23.98-16.2ZM10.66-20.88L10.66-18.45 20.7-18.45 20.7-21.82 11.61-21.82Q10.66-21.82 10.66-20.88L10.66-20.88ZM23.98-21.82L23.98-18.45 34.56-18.45 34.56-20.88Q34.56-21.82 33.62-21.82L33.62-21.82 23.98-21.82ZM58.41 2.43Q56.66 3.33 55.71 2.25L55.71 2.25Q54.45 0.77 56.92-0.45L56.92-0.45Q65.75-5.4 68.31-17.01L68.31-17.01 57.91-17.01Q56.34-17.01 56.34-18.59 56.34-20.16 57.91-20.16L57.91-20.16 68.81-20.16Q69.16-22.81 69.39-25.88L69.39-25.88Q69.53-27.45 71.19-27.45L71.19-27.45Q72.99-27.45 72.86-25.74L72.86-25.74Q72.86-25.56 72.81-25.24L72.81-25.24Q72.45-21.87 72.22-20.16L72.22-20.16 85.05-20.16Q86.63-20.16 86.63-18.59 86.63-17.01 85.05-17.01L85.05-17.01 72.18-17.01Q74.25-11.83 77.81-7.6L77.81-7.6Q81.45-3.28 85.86-0.77L85.86-0.77Q86.94-0.22 87.1 0.38 87.25 0.99 86.53 1.89L86.53 1.89Q85.5 3.15 84.06 2.34L84.06 2.34Q75.83-2.52 70.61-12.87L70.61-12.87Q67.41-2.48 58.41 2.43L58.41 2.43ZM49.39 2.77Q48.87 2.97 48.06 2.43L48.06 2.43Q46.71 1.53 47.52-0.14L47.52-0.14Q50.53-6.88 50.53-20.02L50.53-20.02 50.53-29.43Q50.53-30.6 51.26-31.32 51.98-32.04 53.14-32.04L53.14-32.04 68.44-32.04Q67.86-33.25 66.69-35.05L66.69-35.05Q65.56-36.49 67.32-37.21L67.32-37.21Q68.49-37.71 69.25-36.72L69.25-36.72Q71.23-34.11 72.18-32.04L72.18-32.04 85.86-32.04Q87.44-32.04 87.44-30.46L87.44-30.46Q87.44-28.84 85.86-28.84L85.86-28.84 54.77-28.84Q53.82-28.84 53.82-27.9L53.82-27.9 53.82-20.02Q53.82-5.98 50.35 1.67L50.35 1.67Q49.91 2.56 49.39 2.77ZM109.58-4.68Q108.18-3.46 107.06-4.59L107.06-4.59Q105.8-5.85 107.46-7.33L107.46-7.33Q110.34-10.35 111.19-15.07L111.19-15.07 106.74-15.07Q105.12-15.07 105.12-16.7 105.12-18.31 106.74-18.31L106.74-18.31 111.56-18.31Q111.64-19.26 111.64-21.11L111.64-21.11 111.64-26.32 107.01-26.32Q105.39-26.32 105.39-27.95 105.39-29.56 107.01-29.56L107.01-29.56 111.64-29.56 111.64-35.1Q111.64-36.72 113.27-36.72L113.27-36.72Q114.88-36.72 114.88-35.1L114.88-35.1 114.88-29.56 122.27-29.56 122.27-35.1Q122.27-36.72 123.88-36.72L123.88-36.72Q125.5-36.72 125.5-35.1L125.5-35.1 125.5-29.56 129.6-29.56Q131.22-29.56 131.22-27.95 131.22-26.32 129.6-26.32L129.6-26.32 125.5-26.32 125.5-18.31 130.5-18.31Q132.12-18.31 132.12-16.7 132.12-15.07 130.5-15.07L130.5-15.07 125.5-15.07 125.5-5.31Q125.5-3.69 123.88-3.69L123.88-3.69Q122.27-3.69 122.27-5.31L122.27-5.31 122.27-15.07 114.48-15.07Q113.44-8.55 109.58-4.68L109.58-4.68ZM114.8-18.31L114.8-18.31 122.27-18.31 122.27-26.32 114.88-26.32 114.88-21.06Q114.88-19.26 114.8-18.31ZM116.69 2.97L116.69 2.97Q112.09 2.97 109.31 2.48L109.31 2.48Q106.25 1.89 103.91 0.45L103.91 0.45Q103.28 0.04 102.15-0.85L102.15-0.85Q100.26-2.38 99.58-2.38L99.58-2.38Q98.33-2.38 95.81 0.99L95.81 0.99Q95.04 2.07 94.19 2.29L94.19 2.29Q93.24 2.61 92.56 1.71L92.56 1.71Q92.07 1.08 92.2 0.27L92.2 0.27Q92.34-0.49 92.92-1.17L92.92-1.17Q95.89-4.37 98.1-5.26L98.1-5.26 98.1-18.27Q98.1-19.21 97.16-19.21L97.16-19.21 93.92-19.21Q92.3-19.21 92.3-20.88L92.3-20.88Q92.3-22.5 93.92-22.5L93.92-22.5 99.27-22.5Q100.26-22.5 100.82-21.94 101.39-21.38 101.39-20.38L101.39-20.38 101.39-5Q101.7-4.77 102.38-4.27L102.38-4.27Q103.77-3.19 104.76-2.56L104.76-2.56Q106.83-1.26 109.89-0.72L109.89-0.72Q112.41-0.32 116.73-0.32L116.73-0.32Q124.38-0.32 131.22-1.03L131.22-1.03Q132.48-1.17 132.84-0.74 133.2-0.32 132.84 0.94L132.84 0.94Q132.57 1.89 132.34 2.16L132.34 2.16Q132.03 2.48 131.18 2.52L131.18 2.52Q123.7 2.97 116.69 2.97ZM102.24-28.53Q101.52-27.99 100.98-28.01 100.44-28.04 99.9-28.75L99.9-28.75Q99.05-29.92 97.88-31.18L97.88-31.18Q96.8-32.45 95.31-33.93L95.31-33.93Q94-35.14 95.49-36.18L95.49-36.18Q96.57-36.95 97.61-36L97.61-36Q100.94-32.76 102.69-30.64L102.69-30.64Q103.55-29.56 102.24-28.53L102.24-28.53ZM166.72 3.28L166.72 3.28Q165.1 3.28 165.1 1.67L165.1 1.67 165.1-4.37 156.69-4.37Q155.66-4.37 155.03-5 154.4-5.63 154.4-6.66L154.4-6.66 154.4-6.79Q149.94-3.15 148.63-2 147.33-0.85 146.88-0.18L146.88-0.18Q146.79-0.45 146.29-1.21L146.29-1.21Q146.16-1.4 146.12-1.48L146.12-1.48Q145.75-1.89 145.73-2.34 145.71-2.79 145.98-3.06L145.98-3.06Q146.79-4.18 146.79-5.98L146.79-5.98 146.79-18.77 143.78-18.77Q143.59-11.12 142.92-6.97L142.92-6.97Q142.02-1.48 139.91 1.67L139.91 1.67Q139.37 2.34 138.96 2.34L138.96 2.34Q138.56 2.34 137.93 1.67L137.93 1.67Q137.38 1.08 137.32 0.67 137.25 0.27 137.7-0.36L137.7-0.36Q139.54-3.15 140.31-8.05L140.31-8.05Q140.85-11.83 140.99-18.77L140.99-18.77 139.05-18.77Q137.47-18.77 137.47-20.34 137.47-21.91 139.05-21.91L139.05-21.91 144.04-21.91 144.04-35.46Q144.04-36.85 145.44-36.85L145.44-36.85Q146.84-36.85 146.84-35.46L146.84-35.46 146.84-21.91 151.69-21.91Q153.27-21.91 153.27-20.34 153.27-18.77 151.69-18.77L151.69-18.77 149.58-18.77 149.58-6.3 151.56-7.88Q152.37-8.5 153.09-8.32 153.81-8.14 154.26-7.15L154.26-7.15Q154.31-7.11 154.35-7.04 154.4-6.97 154.4-6.93L154.4-6.93 154.4-7.33Q154.4-7.42 154.49-7.42L154.49-7.42 165.1-7.42 165.1-12.69 160.2-12.69Q159.75-12.69 158.85-12.6L158.85-12.6Q157.54-12.51 157.05-12.6L157.05-12.6Q156.19-12.78 155.95-13.54 155.7-14.31 156.01-15.16L156.01-15.16Q156.24-15.66 156.91-16.7L156.91-16.7Q157.45-17.5 157.68-17.91L157.68-17.91Q158.49-19.3 159.88-22.81L159.88-22.81 157.37-22.81Q155.97-22.81 155.97-24.21 155.97-25.61 157.37-25.61L157.37-25.61 160.92-25.61Q161.5-27.18 162-28.93L162-28.93Q162.5-30.55 164.03-30.15L164.03-30.15Q165.69-29.74 165.15-28.08L165.15-28.08Q165.01-27.68 164.7-26.84 164.38-26.01 164.2-25.61L164.2-25.61 174.1-25.61Q175.5-25.61 175.5-24.21 175.5-22.81 174.1-22.81L174.1-22.81 163.17-22.81Q161.91-19.66 159.79-15.71L159.79-15.71 165.1-15.71 165.1-19.08Q165.1-20.7 166.72-20.7L166.72-20.7Q168.34-20.7 168.34-19.08L168.34-19.08 168.34-15.71 174.87-15.71Q176.31-15.71 176.31-14.17L176.31-14.17Q176.31-12.69 174.82-12.69L174.82-12.69 168.34-12.69 168.34-7.42 176.31-7.42Q177.84-7.42 177.84-5.89 177.84-4.37 176.31-4.37L176.31-4.37 168.34-4.37 168.34 1.67Q168.34 3.28 166.72 3.28ZM150.34-24.12Q149.99-23.22 148.95-23.58L148.95-23.58Q147.82-23.94 148.19-24.88L148.19-24.88Q149.63-29.11 150.53-33.03L150.53-33.03Q150.79-34.38 152.17-34.04 153.54-33.7 153.11-32.35 152.69-31 151.78-28.21L151.78-28.21Q151.11-26.14 150.34-24.12L150.34-24.12ZM141.3-23.71Q140.04-23.4 139.86-24.52L139.86-24.52Q139.59-26.1 139.09-28.3L139.09-28.3Q138.87-29.25 138.42-31.14L138.42-31.14Q138.19-32.09 138.1-32.53L138.1-32.53Q137.79-33.62 139-33.88L139-33.88Q140.09-34.06 140.4-33.07L140.4-33.07Q141.62-28.8 142.29-24.93L142.29-24.93Q142.38-23.98 141.3-23.71L141.3-23.71ZM155.97-27L155.97-27Q154.53-27 154.53-28.39L154.53-28.39 154.53-32.67Q154.53-33.84 155.25-34.56 155.97-35.28 157.14-35.28L157.14-35.28 174.38-35.28Q175.55-35.28 176.26-34.56 176.99-33.84 176.99-32.67L176.99-32.67 176.99-28.48Q176.99-27 175.5-27L175.5-27Q173.97-27 173.97-28.48L173.97-28.48 173.97-31.27Q173.97-32.22 173.03-32.22L173.03-32.22 158.31-32.22Q157.37-32.22 157.37-31.27L157.37-31.27 157.37-28.39Q157.37-27 155.97-27Z" transform="translate(-2.700000047683716, 37.377784729003906)"></path></g> <!----> <!----> <!----> <!----> <!----> <!----> <!----></g></g> <g data-gra="path-slogan" fill-rule="" class="tp-slogan iconsvg-slogansvg" fill="#333" transform="translate(5.000007629394531,46.65778350830078)"><rect x="0" height="1" y="4.185000419616699" width="21.869998931884766"></rect> <rect height="1" y="4.185000419616699" width="21.869998931884766" x="143.27000045776367"></rect> <g transform="translate(24.869998931884766,0)"><g transform="scale(1)"><path d="M8.06-6.05L8.06-6.05L6.94-6.05Q6.52-7.78 4.55-7.83L4.55-7.83Q1.83-7.69 1.73-4.36L1.73-4.36Q1.73-0.80 4.59-0.80L4.59-0.80Q6.56-0.84 7.03-3.19L7.03-3.19L8.16-3.19Q7.64 0.05 4.36 0.14L4.36 0.14Q0.61 0 0.52-4.31L0.52-4.31Q0.70-8.63 4.55-8.81L4.55-8.81Q7.59-8.72 8.06-6.05ZM10.69-5.06L15.19-5.06L15.19-8.58L16.36-8.58L16.36 0L15.19 0L15.19-3.98L10.69-3.98L10.69 0L9.52 0L9.52-8.58L10.69-8.58L10.69-5.06ZM24.94-4.27L24.94-4.27Q24.75-7.64 21.94-7.83L21.94-7.83Q19.08-7.69 18.94-4.27L18.94-4.27Q19.08-0.94 21.94-0.80L21.94-0.80Q24.75-0.98 24.94-4.27ZM26.11-4.27L26.11-4.27Q25.83 0 21.94 0.14L21.94 0.14Q18 0 17.72-4.27L17.72-4.27Q17.95-8.72 21.94-8.81L21.94-8.81Q25.83-8.67 26.11-4.27ZM28.88-8.58L33.19-1.64L33.19-8.58L34.31-8.58L34.31 0L33 0L28.64-6.94L28.59-6.94L28.59 0L27.47 0L27.47-8.58L28.88-8.58ZM42.52-3.61L39.89-3.61L39.89-4.59L43.64-4.59L43.64 0L42.89 0L42.61-1.08Q41.63 0.09 39.80 0.14L39.80 0.14Q38.06 0.14 37.13-0.75L37.13-0.75Q35.72-2.06 35.77-4.36L35.77-4.36Q36.09-8.63 39.84-8.81L39.84-8.81Q43.03-8.63 43.50-6L43.50-6L42.38-6Q41.91-7.78 39.80-7.83L39.80-7.83Q37.13-7.64 36.98-4.31L36.98-4.31Q36.98-0.75 39.84-0.75L39.84-0.75Q40.88-0.75 41.63-1.31L41.63-1.31Q42.56-2.06 42.52-3.61L42.52-3.61ZM50.44-1.08L49.55-1.78L50.16-2.48L51.23-1.64Q52.22-2.63 52.22-4.27L52.22-4.27Q52.03-7.64 49.22-7.83L49.22-7.83Q46.36-7.69 46.22-4.27L46.22-4.27Q46.36-0.94 49.22-0.80L49.22-0.80Q49.92-0.80 50.44-1.08L50.44-1.08ZM52.17-0.94L53.30-0.05L52.73 0.56L51.42-0.33Q50.58 0.14 49.22 0.14L49.22 0.14Q45.28 0 45-4.27L45-4.27Q45.23-8.72 49.22-8.81L49.22-8.81Q53.11-8.67 53.39-4.27L53.39-4.27Q53.34-2.20 52.17-0.94L52.17-0.94ZM54.94-8.58L56.11-8.58L56.11 0L54.94 0L54.94-8.58ZM59.48-8.58L63.80-1.64L63.80-8.58L64.92-8.58L64.92 0L63.61 0L59.25-6.94L59.20-6.94L59.20 0L58.08 0L58.08-8.58L59.48-8.58ZM73.13-3.61L70.50-3.61L70.50-4.59L74.25-4.59L74.25 0L73.50 0L73.22-1.08Q72.23 0.09 70.41 0.14L70.41 0.14Q68.67 0.14 67.73-0.75L67.73-0.75Q66.33-2.06 66.38-4.36L66.38-4.36Q66.70-8.63 70.45-8.81L70.45-8.81Q73.64-8.63 74.11-6L74.11-6L72.98-6Q72.52-7.78 70.41-7.83L70.41-7.83Q67.73-7.64 67.59-4.31L67.59-4.31Q67.59-0.75 70.45-0.75L70.45-0.75Q71.48-0.75 72.23-1.31L72.23-1.31Q73.17-2.06 73.13-3.61L73.13-3.61ZM78.66-1.92L78.66-2.77L79.73-2.77L79.73-2.16Q79.73-0.75 81.05-0.75L81.05-0.75Q82.41-0.75 82.41-2.25L82.41-2.25L82.41-8.58L83.58-8.58L83.58-2.30Q83.53 0.09 81.09 0.14L81.09 0.14Q78.80 0.09 78.66-1.92L78.66-1.92ZM85.55-8.58L86.72-8.58L86.72 0L85.55 0L85.55-8.58ZM90.09-8.58L94.41-1.64L94.41-8.58L95.53-8.58L95.53 0L94.22 0L89.86-6.94L89.81-6.94L89.81 0L88.69 0L88.69-8.58L90.09-8.58ZM98.48-5.06L102.98-5.06L102.98-8.58L104.16-8.58L104.16 0L102.98 0L102.98-3.98L98.48-3.98L98.48 0L97.31 0L97.31-8.58L98.48-8.58L98.48-5.06ZM111.61-3.19L111.61-8.58L112.78-8.58L112.78-3.05Q112.64 0.05 109.27 0.14L109.27 0.14Q106.13 0.05 105.98-2.86L105.98-2.86L105.98-8.58L107.16-8.58L107.16-3.19Q107.20-0.84 109.31-0.80L109.31-0.80Q111.61-0.84 111.61-3.19L111.61-3.19ZM114.75-8.58L115.92-8.58L115.92 0L114.75 0L114.75-8.58Z" transform="translate(-0.515625, 8.8125)"></path></g></g></g></g></g><defs v-gra="od"></defs></svg>